<?xml version="1.0" encoding="UTF-8" standalone="no"?>
<!DOCTYPE svg PUBLIC "-//W3C//DTD SVG 1.1//EN"
 "http://www.w3.org/Graphics/SVG/1.1/DTD/svg11.dtd">
<!-- Generated by graphviz version 9.0.0 (20230911.1827)
 -->
<!-- Title: Graphical Class Hierarchy Pages: 1 -->
<svg width="195pt" height="66pt"
 viewBox="0.00 0.00 195.25 66.00" xmlns="http://www.w3.org/2000/svg" xmlns:xlink="http://www.w3.org/1999/xlink">
<g id="graph0" class="graph" transform="scale(1 1) rotate(0) translate(4 62)">
<title>Graphical Class Hierarchy</title>
<!-- Node0 -->
<g id="Node000000" class="node">
<title>Node0</title>
<g id="a_Node000000"><a xlink:title=" ">
<polygon fill="#e0e0e0" stroke="#999999" points="70,-39 0,-39 0,-19 70,-19 70,-39"/>
<text text-anchor="middle" x="35" y="-25.5" font-family="Helvetica,sans-Serif" font-size="10.00">testing::Test</text>
</a>
</g>
</g>
<!-- Node1 -->
<g id="Node000001" class="node">
<title>Node1</title>
<g id="a_Node000001"><a xlink:href="class_pomodoro_test.html" target="_top" xlink:title=" ">
<polygon fill="white" stroke="#666666" points="185.75,-58 107.5,-58 107.5,-38 185.75,-38 185.75,-58"/>
<text text-anchor="middle" x="146.62" y="-44.5" font-family="Helvetica,sans-Serif" font-size="10.00">pomodoroTest</text>
</a>
</g>
</g>
<!-- Node0&#45;&gt;Node1 -->
<g id="edge1_Node000000_Node000001" class="edge">
<title>Node0&#45;&gt;Node1</title>
<g id="a_edge1_Node000000_Node000001"><a xlink:title=" ">
<path fill="none" stroke="#63b8ff" d="M81.68,-36.92C90.15,-38.39 98.93,-39.91 107.16,-41.33"/>
<polygon fill="#63b8ff" stroke="#63b8ff" points="82.33,-33.48 71.88,-35.22 81.13,-40.37 82.33,-33.48"/>
</a>
</g>
</g>
<!-- Node2 -->
<g id="Node000002" class="node">
<title>Node2</title>
<g id="a_Node000002"><a xlink:href="class_math_utility_test.html" target="_top" xlink:title=" ">
<polygon fill="white" stroke="#666666" points="187.25,-20 106,-20 106,0 187.25,0 187.25,-20"/>
<text text-anchor="middle" x="146.62" y="-6.5" font-family="Helvetica,sans-Serif" font-size="10.00">MathUtilityTest</text>
</a>
</g>
</g>
<!-- Node0&#45;&gt;Node2 -->
<g id="edge2_Node000000_Node000002" class="edge">
<title>Node0&#45;&gt;Node2</title>
<g id="a_edge2_Node000000_Node000002"><a xlink:title=" ">
<path fill="none" stroke="#63b8ff" d="M81.46,-21.12C89.47,-19.73 97.76,-18.3 105.61,-16.93"/>
<polygon fill="#63b8ff" stroke="#63b8ff" points="81.13,-17.63 71.88,-22.78 82.33,-24.52 81.13,-17.63"/>
</a>
</g>
</g>
</g>
</svg>
