<?xml version="1.0" encoding="UTF-8" standalone="no"?>
<!DOCTYPE svg PUBLIC "-//W3C//DTD SVG 1.1//EN"
 "http://www.w3.org/Graphics/SVG/1.1/DTD/svg11.dtd">
<!-- Generated by graphviz version 2.43.0 (0)
 -->
<!-- Title: src Pages: 1 -->
<svg width="196pt" height="220pt"
 viewBox="0.00 0.00 196.00 220.00" xmlns="http://www.w3.org/2000/svg" xmlns:xlink="http://www.w3.org/1999/xlink">
<g id="graph0" class="graph" transform="scale(1 1) rotate(0) translate(4 216)">
<title>src</title>
<polygon fill="white" stroke="transparent" points="-4,4 -4,-216 192,-216 192,4 -4,4"/>
<g id="clust1" class="cluster">
<title>clusterdir_68267d1309a1af8e8297ef4c3efbcdba</title>
<g id="a_clust1"><a xlink:href="dir_68267d1309a1af8e8297ef4c3efbcdba.html" target="_top">
<polygon fill="#eeeeff" stroke="black" points="8,-8 8,-204 180,-204 180,-8 8,-8"/>
</a>
</g>
</g>
<!-- dir_68267d1309a1af8e8297ef4c3efbcdba -->
<g id="node1" class="node">
<title>dir_68267d1309a1af8e8297ef4c3efbcdba</title>
<text text-anchor="middle" x="145" y="-175.5" font-family="Helvetica,sans-Serif" font-size="10.00">src</text>
</g>
<!-- dir_05e57a8512d411a64fc14754c853dfa6 -->
<g id="node2" class="node">
<title>dir_05e57a8512d411a64fc14754c853dfa6</title>
<g id="a_node2"><a xlink:href="dir_05e57a8512d411a64fc14754c853dfa6.html" target="_top" xlink:title="pomodoro">
<polygon fill="white" stroke="red" points="90.5,-124 25.5,-124 25.5,-88 90.5,-88 90.5,-124"/>
<text text-anchor="middle" x="58" y="-103.5" font-family="Helvetica,sans-Serif" font-size="10.00">pomodoro</text>
</a>
</g>
</g>
<!-- dir_0619a8f54b4fad7043a6de45be8fde0b -->
<g id="node4" class="node">
<title>dir_0619a8f54b4fad7043a6de45be8fde0b</title>
<g id="a_node4"><a xlink:href="dir_0619a8f54b4fad7043a6de45be8fde0b.html" target="_top" xlink:title="utility">
<polygon fill="white" stroke="red" points="85,-52 31,-52 31,-16 85,-16 85,-52"/>
<text text-anchor="middle" x="58" y="-31.5" font-family="Helvetica,sans-Serif" font-size="10.00">utility</text>
</a>
</g>
</g>
<!-- dir_05e57a8512d411a64fc14754c853dfa6&#45;&gt;dir_0619a8f54b4fad7043a6de45be8fde0b -->
<g id="edge1" class="edge">
<title>dir_05e57a8512d411a64fc14754c853dfa6&#45;&gt;dir_0619a8f54b4fad7043a6de45be8fde0b</title>
<path fill="none" stroke="black" d="M58,-87.7C58,-79.98 58,-70.71 58,-62.11"/>
<polygon fill="black" stroke="black" points="61.5,-62.1 58,-52.1 54.5,-62.1 61.5,-62.1"/>
<g id="a_edge1&#45;headlabel"><a xlink:href="dir_000001_000007.html" target="_top" xlink:title="1">
<text text-anchor="middle" x="64.34" y="-63.2" font-family="Helvetica,sans-Serif" font-size="10.00">1</text>
</a>
</g>
</g>
<!-- dir_ee586f9e7adfbbacd65abd2bdb93adb3 -->
<g id="node3" class="node">
<title>dir_ee586f9e7adfbbacd65abd2bdb93adb3</title>
<g id="a_node3"><a xlink:href="dir_ee586f9e7adfbbacd65abd2bdb93adb3.html" target="_top" xlink:title="pomodoroapp">
<polygon fill="white" stroke="red" points="99.5,-196 16.5,-196 16.5,-160 99.5,-160 99.5,-196"/>
<text text-anchor="middle" x="58" y="-175.5" font-family="Helvetica,sans-Serif" font-size="10.00">pomodoroapp</text>
</a>
</g>
</g>
<!-- dir_ee586f9e7adfbbacd65abd2bdb93adb3&#45;&gt;dir_05e57a8512d411a64fc14754c853dfa6 -->
<g id="edge2" class="edge">
<title>dir_ee586f9e7adfbbacd65abd2bdb93adb3&#45;&gt;dir_05e57a8512d411a64fc14754c853dfa6</title>
<path fill="none" stroke="black" d="M58,-159.7C58,-151.98 58,-142.71 58,-134.11"/>
<polygon fill="black" stroke="black" points="61.5,-134.1 58,-124.1 54.5,-134.1 61.5,-134.1"/>
<g id="a_edge2&#45;headlabel"><a xlink:href="dir_000004_000001.html" target="_top" xlink:title="1">
<text text-anchor="middle" x="64.34" y="-135.2" font-family="Helvetica,sans-Serif" font-size="10.00">1</text>
</a>
</g>
</g>
</g>
</svg>
