<?xml version="1.0" encoding="UTF-8" standalone="no"?>
<!DOCTYPE svg PUBLIC "-//W3C//DTD SVG 1.1//EN"
 "http://www.w3.org/Graphics/SVG/1.1/DTD/svg11.dtd">
<!-- Generated by graphviz version 2.43.0 (0)
 -->
<!-- Title: src/pomodoroapp/src Pages: 1 -->
<svg width="107pt" height="151pt"
 viewBox="0.00 0.00 107.00 151.00" xmlns="http://www.w3.org/2000/svg" xmlns:xlink="http://www.w3.org/1999/xlink">
<g id="graph0" class="graph" transform="scale(1 1) rotate(0) translate(4 147)">
<title>src/pomodoroapp/src</title>
<polygon fill="white" stroke="transparent" points="-4,4 -4,-147 103,-147 103,4 -4,4"/>
<g id="clust1" class="cluster">
<title>clusterdir_ee586f9e7adfbbacd65abd2bdb93adb3</title>
<g id="a_clust1"><a xlink:href="dir_ee586f9e7adfbbacd65abd2bdb93adb3.html" target="_top" xlink:title="pomodoroapp">
<polygon fill="#ddddee" stroke="black" points="8,-64 8,-135 91,-135 91,-64 8,-64"/>
<text text-anchor="middle" x="49.5" y="-123" font-family="Helvetica,sans-Serif" font-size="10.00">pomodoroapp</text>
</a>
</g>
</g>
<!-- dir_f6154214b2146273d19620ddc939c281 -->
<g id="node1" class="node">
<title>dir_f6154214b2146273d19620ddc939c281</title>
<g id="a_node1"><a xlink:href="dir_f6154214b2146273d19620ddc939c281.html" target="_top" xlink:title="src">
<polygon fill="#eeeeff" stroke="black" points="76,-108 22,-108 22,-72 76,-72 76,-108"/>
<text text-anchor="middle" x="49" y="-87.5" font-family="Helvetica,sans-Serif" font-size="10.00">src</text>
</a>
</g>
</g>
<!-- dir_05e57a8512d411a64fc14754c853dfa6 -->
<g id="node2" class="node">
<title>dir_05e57a8512d411a64fc14754c853dfa6</title>
<g id="a_node2"><a xlink:href="dir_05e57a8512d411a64fc14754c853dfa6.html" target="_top" xlink:title="pomodoro">
<polygon fill="white" stroke="red" points="81.5,-36 16.5,-36 16.5,0 81.5,0 81.5,-36"/>
<text text-anchor="middle" x="49" y="-15.5" font-family="Helvetica,sans-Serif" font-size="10.00">pomodoro</text>
</a>
</g>
</g>
<!-- dir_f6154214b2146273d19620ddc939c281&#45;&gt;dir_05e57a8512d411a64fc14754c853dfa6 -->
<g id="edge1" class="edge">
<title>dir_f6154214b2146273d19620ddc939c281&#45;&gt;dir_05e57a8512d411a64fc14754c853dfa6</title>
<path fill="none" stroke="black" d="M49,-71.7C49,-63.98 49,-54.71 49,-46.11"/>
<polygon fill="black" stroke="black" points="52.5,-46.1 49,-36.1 45.5,-46.1 52.5,-46.1"/>
<g id="a_edge1&#45;headlabel"><a xlink:href="dir_000006_000001.html" target="_top" xlink:title="1">
<text text-anchor="middle" x="55.34" y="-47.2" font-family="Helvetica,sans-Serif" font-size="10.00">1</text>
</a>
</g>
</g>
</g>
</svg>
