<?xml version="1.0" encoding="UTF-8" standalone="no"?>
<!DOCTYPE svg PUBLIC "-//W3C//DTD SVG 1.1//EN"
 "http://www.w3.org/Graphics/SVG/1.1/DTD/svg11.dtd">
<!-- Generated by graphviz version 2.43.0 (0)
 -->
<!-- Title: src/pomodoro Pages: 1 -->
<svg width="194pt" height="247pt"
 viewBox="0.00 0.00 194.00 247.00" xmlns="http://www.w3.org/2000/svg" xmlns:xlink="http://www.w3.org/1999/xlink">
<g id="graph0" class="graph" transform="scale(1 1) rotate(0) translate(4 243)">
<title>src/pomodoro</title>
<polygon fill="white" stroke="transparent" points="-4,4 -4,-243 190,-243 190,4 -4,4"/>
<g id="clust1" class="cluster">
<title>clusterdir_68267d1309a1af8e8297ef4c3efbcdba</title>
<g id="a_clust1"><a xlink:href="dir_68267d1309a1af8e8297ef4c3efbcdba.html" target="_top" xlink:title="src">
<polygon fill="#ddddee" stroke="black" points="8,-8 8,-231 178,-231 178,-8 8,-8"/>
<text text-anchor="middle" x="93" y="-219" font-family="Helvetica,sans-Serif" font-size="10.00">src</text>
</a>
</g>
</g>
<g id="clust2" class="cluster">
<title>clusterdir_05e57a8512d411a64fc14754c853dfa6</title>
<g id="a_clust2"><a xlink:href="dir_05e57a8512d411a64fc14754c853dfa6.html" target="_top">
<polygon fill="#eeeeff" stroke="black" points="16,-80 16,-204 170,-204 170,-80 16,-80"/>
</a>
</g>
</g>
<!-- dir_0619a8f54b4fad7043a6de45be8fde0b -->
<g id="node1" class="node">
<title>dir_0619a8f54b4fad7043a6de45be8fde0b</title>
<g id="a_node1"><a xlink:href="dir_0619a8f54b4fad7043a6de45be8fde0b.html" target="_top" xlink:title="utility">
<polygon fill="white" stroke="red" points="78,-52 24,-52 24,-16 78,-16 78,-52"/>
<text text-anchor="middle" x="51" y="-31.5" font-family="Helvetica,sans-Serif" font-size="10.00">utility</text>
</a>
</g>
</g>
<!-- dir_05e57a8512d411a64fc14754c853dfa6 -->
<g id="node2" class="node">
<title>dir_05e57a8512d411a64fc14754c853dfa6</title>
<text text-anchor="middle" x="129" y="-175.5" font-family="Helvetica,sans-Serif" font-size="10.00">pomodoro</text>
</g>
<!-- dir_167901705585408ff6f24ccdedd6a93a -->
<g id="node3" class="node">
<title>dir_167901705585408ff6f24ccdedd6a93a</title>
<g id="a_node3"><a xlink:href="dir_167901705585408ff6f24ccdedd6a93a.html" target="_top" xlink:title="header">
<polygon fill="white" stroke="black" points="78,-124 24,-124 24,-88 78,-88 78,-124"/>
<text text-anchor="middle" x="51" y="-103.5" font-family="Helvetica,sans-Serif" font-size="10.00">header</text>
</a>
</g>
</g>
<!-- dir_167901705585408ff6f24ccdedd6a93a&#45;&gt;dir_0619a8f54b4fad7043a6de45be8fde0b -->
<g id="edge1" class="edge">
<title>dir_167901705585408ff6f24ccdedd6a93a&#45;&gt;dir_0619a8f54b4fad7043a6de45be8fde0b</title>
<path fill="none" stroke="black" d="M51,-87.7C51,-79.98 51,-70.71 51,-62.11"/>
<polygon fill="black" stroke="black" points="54.5,-62.1 51,-52.1 47.5,-62.1 54.5,-62.1"/>
<g id="a_edge1&#45;headlabel"><a xlink:href="dir_000002_000007.html" target="_top" xlink:title="1">
<text text-anchor="middle" x="57.34" y="-63.2" font-family="Helvetica,sans-Serif" font-size="10.00">1</text>
</a>
</g>
</g>
<!-- dir_41702694b5182e8e2500db68e8f78cf9 -->
<g id="node4" class="node">
<title>dir_41702694b5182e8e2500db68e8f78cf9</title>
<g id="a_node4"><a xlink:href="dir_41702694b5182e8e2500db68e8f78cf9.html" target="_top" xlink:title="src">
<polygon fill="white" stroke="black" points="78,-196 24,-196 24,-160 78,-160 78,-196"/>
<text text-anchor="middle" x="51" y="-175.5" font-family="Helvetica,sans-Serif" font-size="10.00">src</text>
</a>
</g>
</g>
<!-- dir_41702694b5182e8e2500db68e8f78cf9&#45;&gt;dir_167901705585408ff6f24ccdedd6a93a -->
<g id="edge2" class="edge">
<title>dir_41702694b5182e8e2500db68e8f78cf9&#45;&gt;dir_167901705585408ff6f24ccdedd6a93a</title>
<path fill="none" stroke="black" d="M51,-159.7C51,-151.98 51,-142.71 51,-134.11"/>
<polygon fill="black" stroke="black" points="54.5,-134.1 51,-124.1 47.5,-134.1 54.5,-134.1"/>
<g id="a_edge2&#45;headlabel"><a xlink:href="dir_000003_000002.html" target="_top" xlink:title="1">
<text text-anchor="middle" x="57.34" y="-135.2" font-family="Helvetica,sans-Serif" font-size="10.00">1</text>
</a>
</g>
</g>
</g>
</svg>
