<?xml version="1.0" encoding="UTF-8" standalone="no"?>
<!DOCTYPE svg PUBLIC "-//W3C//DTD SVG 1.1//EN"
 "http://www.w3.org/Graphics/SVG/1.1/DTD/svg11.dtd">
<!-- Generated by graphviz version 2.43.0 (0)
 -->
<!-- Title: src/pomodoro/src Pages: 1 -->
<svg width="94pt" height="167pt"
 viewBox="0.00 0.00 94.00 167.00" xmlns="http://www.w3.org/2000/svg" xmlns:xlink="http://www.w3.org/1999/xlink">
<g id="graph0" class="graph" transform="scale(1 1) rotate(0) translate(4 163)">
<title>src/pomodoro/src</title>
<polygon fill="white" stroke="transparent" points="-4,4 -4,-163 90,-163 90,4 -4,4"/>
<g id="clust1" class="cluster">
<title>clusterdir_05e57a8512d411a64fc14754c853dfa6</title>
<g id="a_clust1"><a xlink:href="dir_05e57a8512d411a64fc14754c853dfa6.html" target="_top" xlink:title="pomodoro">
<polygon fill="#ddddee" stroke="black" points="8,-8 8,-151 78,-151 78,-8 8,-8"/>
<text text-anchor="middle" x="43" y="-139" font-family="Helvetica,sans-Serif" font-size="10.00">pomodoro</text>
</a>
</g>
</g>
<!-- dir_167901705585408ff6f24ccdedd6a93a -->
<g id="node1" class="node">
<title>dir_167901705585408ff6f24ccdedd6a93a</title>
<g id="a_node1"><a xlink:href="dir_167901705585408ff6f24ccdedd6a93a.html" target="_top" xlink:title="header">
<polygon fill="none" stroke="black" points="70,-52 16,-52 16,-16 70,-16 70,-52"/>
<text text-anchor="middle" x="43" y="-31.5" font-family="Helvetica,sans-Serif" font-size="10.00">header</text>
</a>
</g>
</g>
<!-- dir_41702694b5182e8e2500db68e8f78cf9 -->
<g id="node2" class="node">
<title>dir_41702694b5182e8e2500db68e8f78cf9</title>
<g id="a_node2"><a xlink:href="dir_41702694b5182e8e2500db68e8f78cf9.html" target="_top" xlink:title="src">
<polygon fill="#eeeeff" stroke="black" points="70,-124 16,-124 16,-88 70,-88 70,-124"/>
<text text-anchor="middle" x="43" y="-103.5" font-family="Helvetica,sans-Serif" font-size="10.00">src</text>
</a>
</g>
</g>
<!-- dir_41702694b5182e8e2500db68e8f78cf9&#45;&gt;dir_167901705585408ff6f24ccdedd6a93a -->
<g id="edge1" class="edge">
<title>dir_41702694b5182e8e2500db68e8f78cf9&#45;&gt;dir_167901705585408ff6f24ccdedd6a93a</title>
<path fill="none" stroke="black" d="M43,-87.7C43,-79.98 43,-70.71 43,-62.11"/>
<polygon fill="black" stroke="black" points="46.5,-62.1 43,-52.1 39.5,-62.1 46.5,-62.1"/>
<g id="a_edge1&#45;headlabel"><a xlink:href="dir_000003_000002.html" target="_top" xlink:title="1">
<text text-anchor="middle" x="49.34" y="-63.2" font-family="Helvetica,sans-Serif" font-size="10.00">1</text>
</a>
</g>
</g>
</g>
</svg>
