<?xml version="1.0" encoding="UTF-8" standalone="no"?>
<!DOCTYPE svg PUBLIC "-//W3C//DTD SVG 1.1//EN"
 "http://www.w3.org/Graphics/SVG/1.1/DTD/svg11.dtd">
<!-- Generated by graphviz version 2.43.0 (0)
 -->
<!-- Title: src/pomodoroapp Pages: 1 -->
<svg width="284pt" height="175pt"
 viewBox="0.00 0.00 284.00 175.00" xmlns="http://www.w3.org/2000/svg" xmlns:xlink="http://www.w3.org/1999/xlink">
<g id="graph0" class="graph" transform="scale(1 1) rotate(0) translate(4 171)">
<title>src/pomodoroapp</title>
<polygon fill="white" stroke="transparent" points="-4,4 -4,-171 280,-171 280,4 -4,4"/>
<g id="clust1" class="cluster">
<title>clusterdir_68267d1309a1af8e8297ef4c3efbcdba</title>
<g id="a_clust1"><a xlink:href="dir_68267d1309a1af8e8297ef4c3efbcdba.html" target="_top" xlink:title="src">
<polygon fill="#ddddee" stroke="black" points="8,-8 8,-159 268,-159 268,-8 8,-8"/>
<text text-anchor="middle" x="138" y="-147" font-family="Helvetica,sans-Serif" font-size="10.00">src</text>
</a>
</g>
</g>
<g id="clust2" class="cluster">
<title>clusterdir_ee586f9e7adfbbacd65abd2bdb93adb3</title>
<g id="a_clust2"><a xlink:href="dir_ee586f9e7adfbbacd65abd2bdb93adb3.html" target="_top">
<polygon fill="#eeeeff" stroke="black" points="16,-80 16,-132 260,-132 260,-80 16,-80"/>
</a>
</g>
</g>
<!-- dir_05e57a8512d411a64fc14754c853dfa6 -->
<g id="node1" class="node">
<title>dir_05e57a8512d411a64fc14754c853dfa6</title>
<g id="a_node1"><a xlink:href="dir_05e57a8512d411a64fc14754c853dfa6.html" target="_top" xlink:title="pomodoro">
<polygon fill="white" stroke="red" points="83.5,-52 18.5,-52 18.5,-16 83.5,-16 83.5,-52"/>
<text text-anchor="middle" x="51" y="-31.5" font-family="Helvetica,sans-Serif" font-size="10.00">pomodoro</text>
</a>
</g>
</g>
<!-- dir_ee586f9e7adfbbacd65abd2bdb93adb3 -->
<g id="node2" class="node">
<title>dir_ee586f9e7adfbbacd65abd2bdb93adb3</title>
<text text-anchor="middle" x="210" y="-103.5" font-family="Helvetica,sans-Serif" font-size="10.00">pomodoroapp</text>
</g>
<!-- dir_e006bb7c9dfce277d72d5826207c5d4a -->
<g id="node3" class="node">
<title>dir_e006bb7c9dfce277d72d5826207c5d4a</title>
<g id="a_node3"><a xlink:href="dir_e006bb7c9dfce277d72d5826207c5d4a.html" target="_top" xlink:title="header">
<polygon fill="white" stroke="black" points="150,-124 96,-124 96,-88 150,-88 150,-124"/>
<text text-anchor="middle" x="123" y="-103.5" font-family="Helvetica,sans-Serif" font-size="10.00">header</text>
</a>
</g>
</g>
<!-- dir_f6154214b2146273d19620ddc939c281 -->
<g id="node4" class="node">
<title>dir_f6154214b2146273d19620ddc939c281</title>
<g id="a_node4"><a xlink:href="dir_f6154214b2146273d19620ddc939c281.html" target="_top" xlink:title="src">
<polygon fill="white" stroke="black" points="78,-124 24,-124 24,-88 78,-88 78,-124"/>
<text text-anchor="middle" x="51" y="-103.5" font-family="Helvetica,sans-Serif" font-size="10.00">src</text>
</a>
</g>
</g>
<!-- dir_f6154214b2146273d19620ddc939c281&#45;&gt;dir_05e57a8512d411a64fc14754c853dfa6 -->
<g id="edge1" class="edge">
<title>dir_f6154214b2146273d19620ddc939c281&#45;&gt;dir_05e57a8512d411a64fc14754c853dfa6</title>
<path fill="none" stroke="black" d="M51,-87.7C51,-79.98 51,-70.71 51,-62.11"/>
<polygon fill="black" stroke="black" points="54.5,-62.1 51,-52.1 47.5,-62.1 54.5,-62.1"/>
<g id="a_edge1&#45;headlabel"><a xlink:href="dir_000006_000001.html" target="_top" xlink:title="1">
<text text-anchor="middle" x="57.34" y="-63.2" font-family="Helvetica,sans-Serif" font-size="10.00">1</text>
</a>
</g>
</g>
</g>
</svg>
