<?xml version="1.0" encoding="UTF-8" standalone="no"?>
<!DOCTYPE svg PUBLIC "-//W3C//DTD SVG 1.1//EN"
 "http://www.w3.org/Graphics/SVG/1.1/DTD/svg11.dtd">
<!-- Generated by graphviz version 2.43.0 (0)
 -->
<!-- Title: src/utility/header/mathUtility.h Pages: 1 -->
<svg width="107pt" height="151pt"
 viewBox="0.00 0.00 107.00 151.00" xmlns="http://www.w3.org/2000/svg" xmlns:xlink="http://www.w3.org/1999/xlink">
<g id="graph0" class="graph" transform="scale(1 1) rotate(0) translate(4 147)">
<title>src/utility/header/mathUtility.h</title>
<polygon fill="white" stroke="transparent" points="-4,4 -4,-147 103,-147 103,4 -4,4"/>
<!-- Node1 -->
<g id="node1" class="node">
<title>Node1</title>
<g id="a_node1"><a xlink:title="Provides functions for math. utilities.">
<polygon fill="#bfbfbf" stroke="black" points="0,-112.5 0,-142.5 99,-142.5 99,-112.5 0,-112.5"/>
<text text-anchor="start" x="8" y="-130.5" font-family="Helvetica,sans-Serif" font-size="10.00">src/utility/header</text>
<text text-anchor="middle" x="49.5" y="-119.5" font-family="Helvetica,sans-Serif" font-size="10.00">/mathUtility.h</text>
</a>
</g>
</g>
<!-- Node2 -->
<g id="node2" class="node">
<title>Node2</title>
<g id="a_node2"><a xlink:href="commonTypes_8h.html" target="_top" xlink:title="Provides cross&#45;platform type definitions.">
<polygon fill="white" stroke="black" points="1.5,-56.5 1.5,-75.5 97.5,-75.5 97.5,-56.5 1.5,-56.5"/>
<text text-anchor="middle" x="49.5" y="-63.5" font-family="Helvetica,sans-Serif" font-size="10.00">commonTypes.h</text>
</a>
</g>
</g>
<!-- Node1&#45;&gt;Node2 -->
<g id="edge1" class="edge">
<title>Node1&#45;&gt;Node2</title>
<path fill="none" stroke="midnightblue" d="M49.5,-112.4C49.5,-104.47 49.5,-94.46 49.5,-85.86"/>
<polygon fill="midnightblue" stroke="midnightblue" points="53,-85.66 49.5,-75.66 46,-85.66 53,-85.66"/>
</g>
<!-- Node3 -->
<g id="node3" class="node">
<title>Node3</title>
<g id="a_node3"><a xlink:title=" ">
<polygon fill="white" stroke="#bfbfbf" points="17,-0.5 17,-19.5 82,-19.5 82,-0.5 17,-0.5"/>
<text text-anchor="middle" x="49.5" y="-7.5" font-family="Helvetica,sans-Serif" font-size="10.00">stdexcept</text>
</a>
</g>
</g>
<!-- Node2&#45;&gt;Node3 -->
<g id="edge2" class="edge">
<title>Node2&#45;&gt;Node3</title>
<path fill="none" stroke="midnightblue" d="M49.5,-56.08C49.5,-49.01 49.5,-38.86 49.5,-29.99"/>
<polygon fill="midnightblue" stroke="midnightblue" points="53,-29.75 49.5,-19.75 46,-29.75 53,-29.75"/>
</g>
</g>
</svg>
