<?xml version="1.0" encoding="UTF-8" standalone="no"?>
<!DOCTYPE svg PUBLIC "-//W3C//DTD SVG 1.1//EN"
 "http://www.w3.org/Graphics/SVG/1.1/DTD/svg11.dtd">
<!-- Generated by graphviz version 2.43.0 (0)
 -->
<!-- Title: src/utility/src/mathUtility.cpp Pages: 1 -->
<svg width="202pt" height="196pt"
 viewBox="0.00 0.00 202.00 196.00" xmlns="http://www.w3.org/2000/svg" xmlns:xlink="http://www.w3.org/1999/xlink">
<g id="graph0" class="graph" transform="scale(1 1) rotate(0) translate(4 192)">
<title>src/utility/src/mathUtility.cpp</title>
<polygon fill="white" stroke="transparent" points="-4,4 -4,-192 198,-192 198,4 -4,4"/>
<!-- Node1 -->
<g id="node1" class="node">
<title>Node1</title>
<g id="a_node1"><a xlink:title="Provides functions for math. utilities.">
<polygon fill="#bfbfbf" stroke="black" points="0,-168.5 0,-187.5 157,-187.5 157,-168.5 0,-168.5"/>
<text text-anchor="middle" x="78.5" y="-175.5" font-family="Helvetica,sans-Serif" font-size="10.00">src/utility/src/mathUtility.cpp</text>
</a>
</g>
</g>
<!-- Node2 -->
<g id="node2" class="node">
<title>Node2</title>
<g id="a_node2"><a xlink:title=" ">
<polygon fill="white" stroke="#bfbfbf" points="0.5,-112.5 0.5,-131.5 50.5,-131.5 50.5,-112.5 0.5,-112.5"/>
<text text-anchor="middle" x="25.5" y="-119.5" font-family="Helvetica,sans-Serif" font-size="10.00">cstring</text>
</a>
</g>
</g>
<!-- Node1&#45;&gt;Node2 -->
<g id="edge1" class="edge">
<title>Node1&#45;&gt;Node2</title>
<path fill="none" stroke="midnightblue" d="M69.75,-168.08C62.03,-160.22 50.6,-148.57 41.28,-139.08"/>
<polygon fill="midnightblue" stroke="midnightblue" points="43.59,-136.44 34.09,-131.75 38.6,-141.34 43.59,-136.44"/>
</g>
<!-- Node3 -->
<g id="node3" class="node">
<title>Node3</title>
<g id="a_node3"><a xlink:href="mathUtility_8h.html" target="_top" xlink:title="Provides functions for math. utilities.">
<polygon fill="white" stroke="black" points="69,-112.5 69,-131.5 194,-131.5 194,-112.5 69,-112.5"/>
<text text-anchor="middle" x="131.5" y="-119.5" font-family="Helvetica,sans-Serif" font-size="10.00">../header/mathUtility.h</text>
</a>
</g>
</g>
<!-- Node1&#45;&gt;Node3 -->
<g id="edge2" class="edge">
<title>Node1&#45;&gt;Node3</title>
<path fill="none" stroke="midnightblue" d="M87.25,-168.08C94.97,-160.22 106.4,-148.57 115.72,-139.08"/>
<polygon fill="midnightblue" stroke="midnightblue" points="118.4,-141.34 122.91,-131.75 113.41,-136.44 118.4,-141.34"/>
</g>
<!-- Node4 -->
<g id="node4" class="node">
<title>Node4</title>
<g id="a_node4"><a xlink:href="commonTypes_8h.html" target="_top" xlink:title="Provides cross&#45;platform type definitions.">
<polygon fill="white" stroke="black" points="83.5,-56.5 83.5,-75.5 179.5,-75.5 179.5,-56.5 83.5,-56.5"/>
<text text-anchor="middle" x="131.5" y="-63.5" font-family="Helvetica,sans-Serif" font-size="10.00">commonTypes.h</text>
</a>
</g>
</g>
<!-- Node3&#45;&gt;Node4 -->
<g id="edge3" class="edge">
<title>Node3&#45;&gt;Node4</title>
<path fill="none" stroke="midnightblue" d="M131.5,-112.08C131.5,-105.01 131.5,-94.86 131.5,-85.99"/>
<polygon fill="midnightblue" stroke="midnightblue" points="135,-85.75 131.5,-75.75 128,-85.75 135,-85.75"/>
</g>
<!-- Node5 -->
<g id="node5" class="node">
<title>Node5</title>
<g id="a_node5"><a xlink:title=" ">
<polygon fill="white" stroke="#bfbfbf" points="99,-0.5 99,-19.5 164,-19.5 164,-0.5 99,-0.5"/>
<text text-anchor="middle" x="131.5" y="-7.5" font-family="Helvetica,sans-Serif" font-size="10.00">stdexcept</text>
</a>
</g>
</g>
<!-- Node4&#45;&gt;Node5 -->
<g id="edge4" class="edge">
<title>Node4&#45;&gt;Node5</title>
<path fill="none" stroke="midnightblue" d="M131.5,-56.08C131.5,-49.01 131.5,-38.86 131.5,-29.99"/>
<polygon fill="midnightblue" stroke="midnightblue" points="135,-29.75 131.5,-19.75 128,-29.75 135,-29.75"/>
</g>
</g>
</svg>
