<?xml version="1.0" encoding="UTF-8" standalone="no"?>
<!DOCTYPE svg PUBLIC "-//W3C//DTD SVG 1.1//EN"
 "http://www.w3.org/Graphics/SVG/1.1/DTD/svg11.dtd">
<!-- Generated by graphviz version 2.43.0 (0)
 -->
<!-- Title: src/pomodoro/src/pomodoro.cpp Pages: 1 -->
<svg width="161pt" height="218pt"
 viewBox="0.00 0.00 161.00 218.00" xmlns="http://www.w3.org/2000/svg" xmlns:xlink="http://www.w3.org/1999/xlink">
<g id="graph0" class="graph" transform="scale(1 1) rotate(0) translate(4 214)">
<title>src/pomodoro/src/pomodoro.cpp</title>
<polygon fill="white" stroke="transparent" points="-4,4 -4,-214 157,-214 157,4 -4,4"/>
<!-- Node1 -->
<g id="node1" class="node">
<title>Node1</title>
<g id="a_node1"><a xlink:title=" ">
<polygon fill="#bfbfbf" stroke="black" points="54,-179.5 54,-209.5 153,-209.5 153,-179.5 54,-179.5"/>
<text text-anchor="start" x="62" y="-197.5" font-family="Helvetica,sans-Serif" font-size="10.00">src/pomodoro/src</text>
<text text-anchor="middle" x="103.5" y="-186.5" font-family="Helvetica,sans-Serif" font-size="10.00">/pomodoro.cpp</text>
</a>
</g>
</g>
<!-- Node2 -->
<g id="node2" class="node">
<title>Node2</title>
<g id="a_node2"><a xlink:href="pomodoro_8h.html" target="_top" xlink:title="Provides functions for math. utilities.">
<polygon fill="white" stroke="black" points="0,-123.5 0,-142.5 119,-142.5 119,-123.5 0,-123.5"/>
<text text-anchor="middle" x="59.5" y="-130.5" font-family="Helvetica,sans-Serif" font-size="10.00">../header/pomodoro.h</text>
</a>
</g>
</g>
<!-- Node1&#45;&gt;Node2 -->
<g id="edge1" class="edge">
<title>Node1&#45;&gt;Node2</title>
<path fill="none" stroke="midnightblue" d="M93.07,-179.4C86.74,-170.84 78.63,-159.87 71.97,-150.86"/>
<polygon fill="midnightblue" stroke="midnightblue" points="74.66,-148.62 65.9,-142.66 69.03,-152.78 74.66,-148.62"/>
</g>
<!-- Node4 -->
<g id="node4" class="node">
<title>Node4</title>
<g id="a_node4"><a xlink:title=" ">
<polygon fill="white" stroke="#bfbfbf" points="71,-0.5 71,-19.5 136,-19.5 136,-0.5 71,-0.5"/>
<text text-anchor="middle" x="103.5" y="-7.5" font-family="Helvetica,sans-Serif" font-size="10.00">stdexcept</text>
</a>
</g>
</g>
<!-- Node1&#45;&gt;Node4 -->
<g id="edge4" class="edge">
<title>Node1&#45;&gt;Node4</title>
<path fill="none" stroke="midnightblue" d="M112.83,-179.15C118.6,-169.4 125.47,-155.95 128.5,-143 132.86,-124.37 130.82,-85.1 123.5,-56 121.15,-46.67 117.01,-36.85 113.1,-28.77"/>
<polygon fill="midnightblue" stroke="midnightblue" points="116.09,-26.95 108.42,-19.64 109.86,-30.14 116.09,-26.95"/>
</g>
<!-- Node3 -->
<g id="node3" class="node">
<title>Node3</title>
<g id="a_node3"><a xlink:href="commonTypes_8h.html" target="_top" xlink:title="Provides cross&#45;platform type definitions.">
<polygon fill="white" stroke="black" points="14.5,-56.5 14.5,-86.5 114.5,-86.5 114.5,-56.5 14.5,-56.5"/>
<text text-anchor="start" x="22.5" y="-74.5" font-family="Helvetica,sans-Serif" font-size="10.00">../../utility/header</text>
<text text-anchor="middle" x="64.5" y="-63.5" font-family="Helvetica,sans-Serif" font-size="10.00">/commonTypes.h</text>
</a>
</g>
</g>
<!-- Node2&#45;&gt;Node3 -->
<g id="edge2" class="edge">
<title>Node2&#45;&gt;Node3</title>
<path fill="none" stroke="midnightblue" d="M60.22,-123.48C60.8,-116.47 61.67,-106.19 62.47,-96.7"/>
<polygon fill="midnightblue" stroke="midnightblue" points="65.97,-96.78 63.32,-86.52 59,-96.19 65.97,-96.78"/>
</g>
<!-- Node3&#45;&gt;Node4 -->
<g id="edge3" class="edge">
<title>Node3&#45;&gt;Node4</title>
<path fill="none" stroke="midnightblue" d="M73.74,-56.4C79.29,-47.93 86.39,-37.1 92.27,-28.14"/>
<polygon fill="midnightblue" stroke="midnightblue" points="95.27,-29.94 97.83,-19.66 89.42,-26.1 95.27,-29.94"/>
</g>
</g>
</svg>
