<?xml version="1.0" encoding="UTF-8" standalone="no"?>
<!DOCTYPE svg PUBLIC "-//W3C//DTD SVG 1.1//EN"
 "http://www.w3.org/Graphics/SVG/1.1/DTD/svg11.dtd">
<!-- Generated by graphviz version 9.0.0 (20230911.1827)
 -->
<!-- Title: src/pomodoroapp/src/pomodoroapp.cpp Pages: 1 -->
<svg width="412pt" height="232pt"
 viewBox="0.00 0.00 411.88 232.00" xmlns="http://www.w3.org/2000/svg" xmlns:xlink="http://www.w3.org/1999/xlink">
<g id="graph0" class="graph" transform="scale(1 1) rotate(0) translate(4 228)">
<title>src/pomodoroapp/src/pomodoroapp.cpp</title>
<!-- Node1 -->
<g id="Node000001" class="node">
<title>Node1</title>
<g id="a_Node000001"><a xlink:title="A simple program to demonstrate the usage of the pomodoro model class.">
<polygon fill="#999999" stroke="#666666" points="235.12,-224 128.38,-224 128.38,-192 235.12,-192 235.12,-224"/>
<text text-anchor="start" x="136.38" y="-210.5" font-family="Helvetica,sans-Serif" font-size="10.00">src/pomodoroapp/src</text>
<text text-anchor="middle" x="181.75" y="-198.5" font-family="Helvetica,sans-Serif" font-size="10.00">/pomodoroapp.cpp</text>
</a>
</g>
</g>
<!-- Node2 -->
<g id="Node000002" class="node">
<title>Node2</title>
<g id="a_Node000002"><a xlink:title=" ">
<polygon fill="#e0e0e0" stroke="#999999" points="53.5,-150 0,-150 0,-130 53.5,-130 53.5,-150"/>
<text text-anchor="middle" x="26.75" y="-136.5" font-family="Helvetica,sans-Serif" font-size="10.00">iostream</text>
</a>
</g>
</g>
<!-- Node1&#45;&gt;Node2 -->
<g id="edge1_Node000001_Node000002" class="edge">
<title>Node1&#45;&gt;Node2</title>
<g id="a_edge1_Node000001_Node000002"><a xlink:title=" ">
<path fill="none" stroke="#63b8ff" d="M145.41,-191.53C119.38,-180.44 84.61,-165.64 59.45,-154.92"/>
<polygon fill="#63b8ff" stroke="#63b8ff" points="60.93,-151.75 50.36,-151.05 58.19,-158.19 60.93,-151.75"/>
</a>
</g>
</g>
<!-- Node3 -->
<g id="Node000003" class="node">
<title>Node3</title>
<g id="a_Node000003"><a xlink:title=" ">
<polygon fill="#e0e0e0" stroke="#999999" points="111.75,-150 71.75,-150 71.75,-130 111.75,-130 111.75,-150"/>
<text text-anchor="middle" x="91.75" y="-136.5" font-family="Helvetica,sans-Serif" font-size="10.00">stack</text>
</a>
</g>
</g>
<!-- Node1&#45;&gt;Node3 -->
<g id="edge2_Node000001_Node000003" class="edge">
<title>Node1&#45;&gt;Node3</title>
<g id="a_edge2_Node000001_Node000003"><a xlink:title=" ">
<path fill="none" stroke="#63b8ff" d="M160.88,-191.69C146.7,-181.3 127.99,-167.57 113.61,-157.03"/>
<polygon fill="#63b8ff" stroke="#63b8ff" points="115.81,-154.3 105.67,-151.21 111.67,-159.95 115.81,-154.3"/>
</a>
</g>
</g>
<!-- Node4 -->
<g id="Node000004" class="node">
<title>Node4</title>
<g id="a_Node000004"><a xlink:title=" ">
<polygon fill="#e0e0e0" stroke="#999999" points="169.75,-150 129.75,-150 129.75,-130 169.75,-130 169.75,-150"/>
<text text-anchor="middle" x="149.75" y="-136.5" font-family="Helvetica,sans-Serif" font-size="10.00">string</text>
</a>
</g>
</g>
<!-- Node1&#45;&gt;Node4 -->
<g id="edge3_Node000001_Node000004" class="edge">
<title>Node1&#45;&gt;Node4</title>
<g id="a_edge3_Node000001_Node000004"><a xlink:title=" ">
<path fill="none" stroke="#63b8ff" d="M174.33,-191.69C169.82,-182.4 164.02,-170.44 159.19,-160.47"/>
<polygon fill="#63b8ff" stroke="#63b8ff" points="162.44,-159.15 154.93,-151.68 156.14,-162.2 162.44,-159.15"/>
</a>
</g>
</g>
<!-- Node5 -->
<g id="Node000005" class="node">
<title>Node5</title>
<g id="a_Node000005"><a xlink:title=" ">
<polygon fill="#e0e0e0" stroke="#999999" points="239.38,-150 188.12,-150 188.12,-130 239.38,-130 239.38,-150"/>
<text text-anchor="middle" x="213.75" y="-136.5" font-family="Helvetica,sans-Serif" font-size="10.00">sstream</text>
</a>
</g>
</g>
<!-- Node1&#45;&gt;Node5 -->
<g id="edge4_Node000001_Node000005" class="edge">
<title>Node1&#45;&gt;Node5</title>
<g id="a_edge4_Node000001_Node000005"><a xlink:title=" ">
<path fill="none" stroke="#63b8ff" d="M189.17,-191.69C193.68,-182.4 199.48,-170.44 204.31,-160.47"/>
<polygon fill="#63b8ff" stroke="#63b8ff" points="207.36,-162.2 208.57,-151.68 201.06,-159.15 207.36,-162.2"/>
</a>
</g>
</g>
<!-- Node6 -->
<g id="Node000006" class="node">
<title>Node6</title>
<g id="a_Node000006"><a xlink:title=" ">
<polygon fill="#e0e0e0" stroke="#999999" points="334.12,-20 275.38,-20 275.38,0 334.12,0 334.12,-20"/>
<text text-anchor="middle" x="304.75" y="-6.5" font-family="Helvetica,sans-Serif" font-size="10.00">stdexcept</text>
</a>
</g>
</g>
<!-- Node1&#45;&gt;Node6 -->
<g id="edge5_Node000001_Node000006" class="edge">
<title>Node1&#45;&gt;Node6</title>
<g id="a_edge5_Node000001_Node000006"><a xlink:title=" ">
<path fill="none" stroke="#63b8ff" d="M208.47,-191.65C222.06,-182.71 237.95,-170.38 248.75,-156 264.12,-135.54 287.45,-65.82 298.51,-31.05"/>
<polygon fill="#63b8ff" stroke="#63b8ff" points="301.76,-32.38 301.42,-21.79 295.08,-30.28 301.76,-32.38"/>
</a>
</g>
</g>
<!-- Node7 -->
<g id="Node000007" class="node">
<title>Node7</title>
<g id="a_Node000007"><a xlink:href="pomodoro_8h.html" target="_top" xlink:title="Provides functions for math. utilities.">
<polygon fill="white" stroke="#666666" points="403.88,-156 295.62,-156 295.62,-124 403.88,-124 403.88,-156"/>
<text text-anchor="start" x="303.62" y="-142.5" font-family="Helvetica,sans-Serif" font-size="10.00">../../pomodoro/header</text>
<text text-anchor="middle" x="349.75" y="-130.5" font-family="Helvetica,sans-Serif" font-size="10.00">/pomodoro.h</text>
</a>
</g>
</g>
<!-- Node1&#45;&gt;Node7 -->
<g id="edge6_Node000001_Node000007" class="edge">
<title>Node1&#45;&gt;Node7</title>
<g id="a_edge6_Node000001_Node000007"><a xlink:title=" ">
<path fill="none" stroke="#63b8ff" d="M221.14,-191.53C244.65,-182.29 274.72,-170.48 299.87,-160.6"/>
<polygon fill="#63b8ff" stroke="#63b8ff" points="300.88,-163.96 308.91,-157.04 298.32,-157.44 300.88,-163.96"/>
</a>
</g>
</g>
<!-- Node8 -->
<g id="Node000008" class="node">
<title>Node8</title>
<g id="a_Node000008"><a xlink:href="common_types_8h.html" target="_top" xlink:title="Provides cross&#45;platform type definitions.">
<polygon fill="white" stroke="#666666" points="391.25,-88 300.25,-88 300.25,-56 391.25,-56 391.25,-88"/>
<text text-anchor="start" x="308.25" y="-74.5" font-family="Helvetica,sans-Serif" font-size="10.00">../../utility/header</text>
<text text-anchor="middle" x="345.75" y="-62.5" font-family="Helvetica,sans-Serif" font-size="10.00">/commonTypes.h</text>
</a>
</g>
</g>
<!-- Node7&#45;&gt;Node8 -->
<g id="edge7_Node000007_Node000008" class="edge">
<title>Node7&#45;&gt;Node8</title>
<g id="a_edge7_Node000007_Node000008"><a xlink:title=" ">
<path fill="none" stroke="#63b8ff" d="M348.82,-123.69C348.39,-116.53 347.86,-107.79 347.36,-99.59"/>
<polygon fill="#63b8ff" stroke="#63b8ff" points="350.86,-99.51 346.76,-89.74 343.88,-99.93 350.86,-99.51"/>
</a>
</g>
</g>
<!-- Node8&#45;&gt;Node6 -->
<g id="edge8_Node000008_Node000006" class="edge">
<title>Node8&#45;&gt;Node6</title>
<g id="a_edge8_Node000008_Node000006"><a xlink:title=" ">
<path fill="none" stroke="#63b8ff" d="M335.19,-55.55C329.79,-47.65 323.18,-37.97 317.5,-29.66"/>
<polygon fill="#63b8ff" stroke="#63b8ff" points="320.56,-27.94 312.03,-21.66 314.78,-31.89 320.56,-27.94"/>
</a>
</g>
</g>
</g>
</svg>
