<?xml version="1.0" encoding="UTF-8" standalone="no"?>
<!DOCTYPE svg PUBLIC "-//W3C//DTD SVG 1.1//EN"
 "http://www.w3.org/Graphics/SVG/1.1/DTD/svg11.dtd">
<!-- Generated by graphviz version 2.43.0 (0)
 -->
<!-- Title: src/utility/header/commonTypes.h Pages: 1 -->
<svg width="417pt" height="173pt"
 viewBox="0.00 0.00 417.00 173.00" xmlns="http://www.w3.org/2000/svg" xmlns:xlink="http://www.w3.org/1999/xlink">
<g id="graph0" class="graph" transform="scale(1 1) rotate(0) translate(4 169)">
<title>src/utility/header/commonTypes.h</title>
<polygon fill="white" stroke="transparent" points="-4,4 -4,-169 413,-169 413,4 -4,4"/>
<!-- Node1 -->
<g id="node1" class="node">
<title>Node1</title>
<g id="a_node1"><a xlink:title="Provides cross&#45;platform type definitions.">
<polygon fill="#bfbfbf" stroke="black" points="111,-134.5 111,-164.5 210,-164.5 210,-134.5 111,-134.5"/>
<text text-anchor="start" x="119" y="-152.5" font-family="Helvetica,sans-Serif" font-size="10.00">src/utility/header</text>
<text text-anchor="middle" x="160.5" y="-141.5" font-family="Helvetica,sans-Serif" font-size="10.00">/commonTypes.h</text>
</a>
</g>
</g>
<!-- Node2 -->
<g id="node2" class="node">
<title>Node2</title>
<g id="a_node2"><a xlink:href="$mathUtility_8h.html" xlink:title="Provides functions for math. utilities.">
<polygon fill="white" stroke="black" points="38,-67.5 38,-97.5 137,-97.5 137,-67.5 38,-67.5"/>
<text text-anchor="start" x="46" y="-85.5" font-family="Helvetica,sans-Serif" font-size="10.00">src/utility/header</text>
<text text-anchor="middle" x="87.5" y="-74.5" font-family="Helvetica,sans-Serif" font-size="10.00">/mathUtility.h</text>
</a>
</g>
</g>
<!-- Node1&#45;&gt;Node2 -->
<g id="edge1" class="edge">
<title>Node1&#45;&gt;Node2</title>
<path fill="none" stroke="midnightblue" d="M137.03,-127.6C126,-117.78 113.16,-106.34 103.31,-97.58"/>
<polygon fill="midnightblue" stroke="midnightblue" points="134.86,-130.36 144.66,-134.4 139.52,-125.13 134.86,-130.36"/>
</g>
<!-- Node4 -->
<g id="node4" class="node">
<title>Node4</title>
<g id="a_node4"><a xlink:href="$pomodoro_8h.html" xlink:title="Provides functions for math. utilities.">
<polygon fill="white" stroke="black" points="165,-67.5 165,-97.5 284,-97.5 284,-67.5 165,-67.5"/>
<text text-anchor="start" x="173" y="-85.5" font-family="Helvetica,sans-Serif" font-size="10.00">src/pomodoro/header</text>
<text text-anchor="middle" x="224.5" y="-74.5" font-family="Helvetica,sans-Serif" font-size="10.00">/pomodoro.h</text>
</a>
</g>
</g>
<!-- Node1&#45;&gt;Node4 -->
<g id="edge3" class="edge">
<title>Node1&#45;&gt;Node4</title>
<path fill="none" stroke="midnightblue" d="M181.65,-127.02C191.18,-117.34 202.17,-106.17 210.64,-97.58"/>
<polygon fill="midnightblue" stroke="midnightblue" points="178.91,-124.81 174.39,-134.4 183.9,-129.73 178.91,-124.81"/>
</g>
<!-- Node3 -->
<g id="node3" class="node">
<title>Node3</title>
<g id="a_node3"><a xlink:href="$mathUtility_8cpp.html" xlink:title="Provides functions for math. utilities.">
<polygon fill="white" stroke="black" points="0,-6 0,-25 157,-25 157,-6 0,-6"/>
<text text-anchor="middle" x="78.5" y="-13" font-family="Helvetica,sans-Serif" font-size="10.00">src/utility/src/mathUtility.cpp</text>
</a>
</g>
</g>
<!-- Node2&#45;&gt;Node3 -->
<g id="edge2" class="edge">
<title>Node2&#45;&gt;Node3</title>
<path fill="none" stroke="midnightblue" d="M84.14,-57.25C82.59,-46.02 80.84,-33.38 79.7,-25.19"/>
<polygon fill="midnightblue" stroke="midnightblue" points="80.71,-57.97 85.55,-67.4 87.64,-57.01 80.71,-57.97"/>
</g>
<!-- Node5 -->
<g id="node5" class="node">
<title>Node5</title>
<g id="a_node5"><a xlink:href="$pomodoro_8cpp.html" xlink:title=" ">
<polygon fill="white" stroke="black" points="175,-0.5 175,-30.5 274,-30.5 274,-0.5 175,-0.5"/>
<text text-anchor="start" x="183" y="-18.5" font-family="Helvetica,sans-Serif" font-size="10.00">src/pomodoro/src</text>
<text text-anchor="middle" x="224.5" y="-7.5" font-family="Helvetica,sans-Serif" font-size="10.00">/pomodoro.cpp</text>
</a>
</g>
</g>
<!-- Node4&#45;&gt;Node5 -->
<g id="edge4" class="edge">
<title>Node4&#45;&gt;Node5</title>
<path fill="none" stroke="midnightblue" d="M224.5,-57.11C224.5,-48.15 224.5,-38.32 224.5,-30.58"/>
<polygon fill="midnightblue" stroke="midnightblue" points="221,-57.4 224.5,-67.4 228,-57.4 221,-57.4"/>
</g>
<!-- Node6 -->
<g id="node6" class="node">
<title>Node6</title>
<g id="a_node6"><a xlink:href="$pomodoroapp_8cpp.html" xlink:title="A simple program to demonstrate the usage of the pomodoro model class.">
<polygon fill="white" stroke="black" points="292,-0.5 292,-30.5 409,-30.5 409,-0.5 292,-0.5"/>
<text text-anchor="start" x="300" y="-18.5" font-family="Helvetica,sans-Serif" font-size="10.00">src/pomodoroapp/src</text>
<text text-anchor="middle" x="350.5" y="-7.5" font-family="Helvetica,sans-Serif" font-size="10.00">/pomodoroapp.cpp</text>
</a>
</g>
</g>
<!-- Node4&#45;&gt;Node6 -->
<g id="edge5" class="edge">
<title>Node4&#45;&gt;Node6</title>
<path fill="none" stroke="midnightblue" d="M260.92,-62.71C280.79,-52.46 304.98,-39.98 323.21,-30.58"/>
<polygon fill="midnightblue" stroke="midnightblue" points="259.12,-59.7 251.84,-67.4 262.33,-65.92 259.12,-59.7"/>
</g>
</g>
</svg>
