<?xml version="1.0" encoding="UTF-8" standalone="no"?>
<!DOCTYPE svg PUBLIC "-//W3C//DTD SVG 1.1//EN"
 "http://www.w3.org/Graphics/SVG/1.1/DTD/svg11.dtd">
<!-- Generated by graphviz version 2.43.0 (0)
 -->
<!-- Title: src/pomodoro/header/pomodoro.h Pages: 1 -->
<svg width="127pt" height="162pt"
 viewBox="0.00 0.00 127.00 162.00" xmlns="http://www.w3.org/2000/svg" xmlns:xlink="http://www.w3.org/1999/xlink">
<g id="graph0" class="graph" transform="scale(1 1) rotate(0) translate(4 158)">
<title>src/pomodoro/header/pomodoro.h</title>
<polygon fill="white" stroke="transparent" points="-4,4 -4,-158 123,-158 123,4 -4,4"/>
<!-- Node1 -->
<g id="node1" class="node">
<title>Node1</title>
<g id="a_node1"><a xlink:title="Provides functions for math. utilities.">
<polygon fill="#bfbfbf" stroke="black" points="0,-123.5 0,-153.5 119,-153.5 119,-123.5 0,-123.5"/>
<text text-anchor="start" x="8" y="-141.5" font-family="Helvetica,sans-Serif" font-size="10.00">src/pomodoro/header</text>
<text text-anchor="middle" x="59.5" y="-130.5" font-family="Helvetica,sans-Serif" font-size="10.00">/pomodoro.h</text>
</a>
</g>
</g>
<!-- Node2 -->
<g id="node2" class="node">
<title>Node2</title>
<g id="a_node2"><a xlink:href="$commonTypes_8h.html" xlink:title="Provides cross&#45;platform type definitions.">
<polygon fill="white" stroke="black" points="9.5,-56.5 9.5,-86.5 109.5,-86.5 109.5,-56.5 9.5,-56.5"/>
<text text-anchor="start" x="17.5" y="-74.5" font-family="Helvetica,sans-Serif" font-size="10.00">../../utility/header</text>
<text text-anchor="middle" x="59.5" y="-63.5" font-family="Helvetica,sans-Serif" font-size="10.00">/commonTypes.h</text>
</a>
</g>
</g>
<!-- Node1&#45;&gt;Node2 -->
<g id="edge1" class="edge">
<title>Node1&#45;&gt;Node2</title>
<path fill="none" stroke="midnightblue" d="M59.5,-123.4C59.5,-115.64 59.5,-105.81 59.5,-96.86"/>
<polygon fill="midnightblue" stroke="midnightblue" points="63,-96.58 59.5,-86.58 56,-96.58 63,-96.58"/>
</g>
<!-- Node3 -->
<g id="node3" class="node">
<title>Node3</title>
<g id="a_node3"><a xlink:title=" ">
<polygon fill="white" stroke="#bfbfbf" points="27,-0.5 27,-19.5 92,-19.5 92,-0.5 27,-0.5"/>
<text text-anchor="middle" x="59.5" y="-7.5" font-family="Helvetica,sans-Serif" font-size="10.00">stdexcept</text>
</a>
</g>
</g>
<!-- Node2&#45;&gt;Node3 -->
<g id="edge2" class="edge">
<title>Node2&#45;&gt;Node3</title>
<path fill="none" stroke="midnightblue" d="M59.5,-56.4C59.5,-48.47 59.5,-38.46 59.5,-29.86"/>
<polygon fill="midnightblue" stroke="midnightblue" points="63,-29.66 59.5,-19.66 56,-29.66 63,-29.66"/>
</g>
</g>
</svg>
