<?xml version="1.0" encoding="UTF-8" standalone="no"?>
<!DOCTYPE svg PUBLIC "-//W3C//DTD SVG 1.1//EN"
 "http://www.w3.org/Graphics/SVG/1.1/DTD/svg11.dtd">
<!-- Generated by graphviz version 2.43.0 (0)
 -->
<!-- Title: src/pomodoroapp/src/pomodoroapp.cpp Pages: 1 -->
<svg width="442pt" height="229pt"
 viewBox="0.00 0.00 441.50 229.00" xmlns="http://www.w3.org/2000/svg" xmlns:xlink="http://www.w3.org/1999/xlink">
<g id="graph0" class="graph" transform="scale(1 1) rotate(0) translate(4 225)">
<title>src/pomodoroapp/src/pomodoroapp.cpp</title>
<polygon fill="white" stroke="transparent" points="-4,4 -4,-225 437.5,-225 437.5,4 -4,4"/>
<!-- Node1 -->
<g id="node1" class="node">
<title>Node1</title>
<g id="a_node1"><a xlink:title="A simple program to demonstrate the usage of the pomodoro model class.">
<polygon fill="#bfbfbf" stroke="black" points="137.5,-190.5 137.5,-220.5 254.5,-220.5 254.5,-190.5 137.5,-190.5"/>
<text text-anchor="start" x="145.5" y="-208.5" font-family="Helvetica,sans-Serif" font-size="10.00">src/pomodoroapp/src</text>
<text text-anchor="middle" x="196" y="-197.5" font-family="Helvetica,sans-Serif" font-size="10.00">/pomodoroapp.cpp</text>
</a>
</g>
</g>
<!-- Node2 -->
<g id="node2" class="node">
<title>Node2</title>
<g id="a_node2"><a xlink:title=" ">
<polygon fill="white" stroke="#bfbfbf" points="0,-129 0,-148 60,-148 60,-129 0,-129"/>
<text text-anchor="middle" x="30" y="-136" font-family="Helvetica,sans-Serif" font-size="10.00">iostream</text>
</a>
</g>
</g>
<!-- Node1&#45;&gt;Node2 -->
<g id="edge1" class="edge">
<title>Node1&#45;&gt;Node2</title>
<path fill="none" stroke="midnightblue" d="M159.98,-190.4C130.47,-178.84 89.14,-162.66 61.06,-151.66"/>
<polygon fill="midnightblue" stroke="midnightblue" points="62.31,-148.39 51.73,-148.01 59.76,-154.91 62.31,-148.39"/>
</g>
<!-- Node3 -->
<g id="node3" class="node">
<title>Node3</title>
<g id="a_node3"><a xlink:title=" ">
<polygon fill="white" stroke="#bfbfbf" points="78.5,-129 78.5,-148 121.5,-148 121.5,-129 78.5,-129"/>
<text text-anchor="middle" x="100" y="-136" font-family="Helvetica,sans-Serif" font-size="10.00">stack</text>
</a>
</g>
</g>
<!-- Node1&#45;&gt;Node3 -->
<g id="edge2" class="edge">
<title>Node1&#45;&gt;Node3</title>
<path fill="none" stroke="midnightblue" d="M175.17,-190.4C159.22,-179.6 137.3,-164.76 121.25,-153.89"/>
<polygon fill="midnightblue" stroke="midnightblue" points="122.81,-150.72 112.56,-148.01 118.88,-156.51 122.81,-150.72"/>
</g>
<!-- Node4 -->
<g id="node4" class="node">
<title>Node4</title>
<g id="a_node4"><a xlink:title=" ">
<polygon fill="white" stroke="#bfbfbf" points="140,-129 140,-148 184,-148 184,-129 140,-129"/>
<text text-anchor="middle" x="162" y="-136" font-family="Helvetica,sans-Serif" font-size="10.00">string</text>
</a>
</g>
</g>
<!-- Node1&#45;&gt;Node4 -->
<g id="edge3" class="edge">
<title>Node1&#45;&gt;Node4</title>
<path fill="none" stroke="midnightblue" d="M188.62,-190.4C183.53,-180.66 176.72,-167.65 171.27,-157.21"/>
<polygon fill="midnightblue" stroke="midnightblue" points="174.28,-155.43 166.55,-148.19 168.08,-158.68 174.28,-155.43"/>
</g>
<!-- Node5 -->
<g id="node5" class="node">
<title>Node5</title>
<g id="a_node5"><a xlink:title=" ">
<polygon fill="white" stroke="#bfbfbf" points="202,-129 202,-148 258,-148 258,-129 202,-129"/>
<text text-anchor="middle" x="230" y="-136" font-family="Helvetica,sans-Serif" font-size="10.00">sstream</text>
</a>
</g>
</g>
<!-- Node1&#45;&gt;Node5 -->
<g id="edge4" class="edge">
<title>Node1&#45;&gt;Node5</title>
<path fill="none" stroke="midnightblue" d="M203.38,-190.4C208.47,-180.66 215.28,-167.65 220.73,-157.21"/>
<polygon fill="midnightblue" stroke="midnightblue" points="223.92,-158.68 225.45,-148.19 217.72,-155.43 223.92,-158.68"/>
</g>
<!-- Node6 -->
<g id="node6" class="node">
<title>Node6</title>
<g id="a_node6"><a xlink:title=" ">
<polygon fill="white" stroke="#bfbfbf" points="292.5,-0.5 292.5,-19.5 357.5,-19.5 357.5,-0.5 292.5,-0.5"/>
<text text-anchor="middle" x="325" y="-7.5" font-family="Helvetica,sans-Serif" font-size="10.00">stdexcept</text>
</a>
</g>
</g>
<!-- Node1&#45;&gt;Node6 -->
<g id="edge5" class="edge">
<title>Node1&#45;&gt;Node6</title>
<path fill="none" stroke="midnightblue" d="M222.84,-190.43C237.52,-181.62 255.09,-169.07 267,-154 282.97,-133.8 307.65,-63.33 318.96,-29.46"/>
<polygon fill="midnightblue" stroke="midnightblue" points="322.32,-30.45 322.14,-19.85 315.68,-28.25 322.32,-30.45"/>
</g>
<!-- Node7 -->
<g id="node7" class="node">
<title>Node7</title>
<g id="a_node7"><a xlink:href="$pomodoro_8h.html" xlink:title="Provides functions for math. utilities.">
<polygon fill="white" stroke="black" points="314.5,-123.5 314.5,-153.5 433.5,-153.5 433.5,-123.5 314.5,-123.5"/>
<text text-anchor="start" x="322.5" y="-141.5" font-family="Helvetica,sans-Serif" font-size="10.00">../../pomodoro/header</text>
<text text-anchor="middle" x="374" y="-130.5" font-family="Helvetica,sans-Serif" font-size="10.00">/pomodoro.h</text>
</a>
</g>
</g>
<!-- Node1&#45;&gt;Node7 -->
<g id="edge6" class="edge">
<title>Node1&#45;&gt;Node7</title>
<path fill="none" stroke="midnightblue" d="M234.62,-190.4C261.45,-180.6 297.38,-167.48 326.03,-157.02"/>
<polygon fill="midnightblue" stroke="midnightblue" points="327.26,-160.29 335.45,-153.58 324.86,-153.72 327.26,-160.29"/>
</g>
<!-- Node8 -->
<g id="node8" class="node">
<title>Node8</title>
<g id="a_node8"><a xlink:href="$commonTypes_8h.html" xlink:title="Provides cross&#45;platform type definitions.">
<polygon fill="white" stroke="black" points="319,-56.5 319,-86.5 419,-86.5 419,-56.5 319,-56.5"/>
<text text-anchor="start" x="327" y="-74.5" font-family="Helvetica,sans-Serif" font-size="10.00">../../utility/header</text>
<text text-anchor="middle" x="369" y="-63.5" font-family="Helvetica,sans-Serif" font-size="10.00">/commonTypes.h</text>
</a>
</g>
</g>
<!-- Node7&#45;&gt;Node8 -->
<g id="edge7" class="edge">
<title>Node7&#45;&gt;Node8</title>
<path fill="none" stroke="midnightblue" d="M372.92,-123.4C372.31,-115.56 371.55,-105.6 370.85,-96.57"/>
<polygon fill="midnightblue" stroke="midnightblue" points="374.34,-96.28 370.08,-86.58 367.36,-96.82 374.34,-96.28"/>
</g>
<!-- Node8&#45;&gt;Node6 -->
<g id="edge8" class="edge">
<title>Node8&#45;&gt;Node6</title>
<path fill="none" stroke="midnightblue" d="M358.57,-56.4C352.24,-47.84 344.13,-36.87 337.47,-27.86"/>
<polygon fill="midnightblue" stroke="midnightblue" points="340.16,-25.62 331.4,-19.66 334.53,-29.78 340.16,-25.62"/>
</g>
</g>
</svg>
