<?xml version="1.0" encoding="UTF-8" standalone="no"?>
<!DOCTYPE svg PUBLIC "-//W3C//DTD SVG 1.1//EN"
 "http://www.w3.org/Graphics/SVG/1.1/DTD/svg11.dtd">
<!-- Generated by graphviz version 2.43.0 (0)
 -->
<!-- Title: src/pomodoro/header/pomodoro.h Pages: 1 -->
<svg width="242pt" height="106pt"
 viewBox="0.00 0.00 242.00 106.00" xmlns="http://www.w3.org/2000/svg" xmlns:xlink="http://www.w3.org/1999/xlink">
<g id="graph0" class="graph" transform="scale(1 1) rotate(0) translate(4 102)">
<title>src/pomodoro/header/pomodoro.h</title>
<polygon fill="white" stroke="transparent" points="-4,4 -4,-102 238,-102 238,4 -4,4"/>
<!-- Node1 -->
<g id="node1" class="node">
<title>Node1</title>
<g id="a_node1"><a xlink:title="Provides functions for math. utilities.">
<polygon fill="#bfbfbf" stroke="black" points="53,-67.5 53,-97.5 172,-97.5 172,-67.5 53,-67.5"/>
<text text-anchor="start" x="61" y="-85.5" font-family="Helvetica,sans-Serif" font-size="10.00">src/pomodoro/header</text>
<text text-anchor="middle" x="112.5" y="-74.5" font-family="Helvetica,sans-Serif" font-size="10.00">/pomodoro.h</text>
</a>
</g>
</g>
<!-- Node2 -->
<g id="node2" class="node">
<title>Node2</title>
<g id="a_node2"><a xlink:href="$pomodoro_8cpp.html" xlink:title=" ">
<polygon fill="white" stroke="black" points="0,-0.5 0,-30.5 99,-30.5 99,-0.5 0,-0.5"/>
<text text-anchor="start" x="8" y="-18.5" font-family="Helvetica,sans-Serif" font-size="10.00">src/pomodoro/src</text>
<text text-anchor="middle" x="49.5" y="-7.5" font-family="Helvetica,sans-Serif" font-size="10.00">/pomodoro.cpp</text>
</a>
</g>
</g>
<!-- Node1&#45;&gt;Node2 -->
<g id="edge1" class="edge">
<title>Node1&#45;&gt;Node2</title>
<path fill="none" stroke="midnightblue" d="M91.69,-60.02C82.3,-50.34 71.48,-39.17 63.14,-30.58"/>
<polygon fill="midnightblue" stroke="midnightblue" points="89.36,-62.65 98.83,-67.4 94.38,-57.78 89.36,-62.65"/>
</g>
<!-- Node3 -->
<g id="node3" class="node">
<title>Node3</title>
<g id="a_node3"><a xlink:href="$pomodoroapp_8cpp.html" xlink:title="A simple program to demonstrate the usage of the pomodoro model class.">
<polygon fill="white" stroke="black" points="117,-0.5 117,-30.5 234,-30.5 234,-0.5 117,-0.5"/>
<text text-anchor="start" x="125" y="-18.5" font-family="Helvetica,sans-Serif" font-size="10.00">src/pomodoroapp/src</text>
<text text-anchor="middle" x="175.5" y="-7.5" font-family="Helvetica,sans-Serif" font-size="10.00">/pomodoroapp.cpp</text>
</a>
</g>
</g>
<!-- Node1&#45;&gt;Node3 -->
<g id="edge2" class="edge">
<title>Node1&#45;&gt;Node3</title>
<path fill="none" stroke="midnightblue" d="M133.31,-60.02C142.7,-50.34 153.52,-39.17 161.86,-30.58"/>
<polygon fill="midnightblue" stroke="midnightblue" points="130.62,-57.78 126.17,-67.4 135.64,-62.65 130.62,-57.78"/>
</g>
</g>
</svg>
