<?xml version="1.0" encoding="UTF-8" standalone="no"?>
<!DOCTYPE svg PUBLIC "-//W3C//DTD SVG 1.1//EN"
 "http://www.w3.org/Graphics/SVG/1.1/DTD/svg11.dtd">
<!-- Generated by graphviz version 2.43.0 (0)
 -->
<!-- Title: Graphical Class Hierarchy Pages: 1 -->
<svg width="211pt" height="66pt"
 viewBox="0.00 0.00 211.00 66.00" xmlns="http://www.w3.org/2000/svg" xmlns:xlink="http://www.w3.org/1999/xlink">
<g id="graph0" class="graph" transform="scale(1 1) rotate(0) translate(4 62)">
<title>Graphical Class Hierarchy</title>
<polygon fill="white" stroke="transparent" points="-4,4 -4,-62 207,-62 207,4 -4,4"/>
<!-- Node1 -->
<g id="node1" class="node">
<title>Node1</title>
<g id="a_node1"><a xlink:title=" ">
<polygon fill="white" stroke="#bfbfbf" points="0,-19.5 0,-38.5 76,-38.5 76,-19.5 0,-19.5"/>
<text text-anchor="middle" x="38" y="-26.5" font-family="Helvetica,sans-Serif" font-size="10.00">testing::Test</text>
</a>
</g>
</g>
<!-- Node0 -->
<g id="node2" class="node">
<title>Node0</title>
<g id="a_node2"><a xlink:href="classpomodoroTest.html" target="_top" xlink:title=" ">
<polygon fill="white" stroke="black" points="114.5,-38.5 114.5,-57.5 200.5,-57.5 200.5,-38.5 114.5,-38.5"/>
<text text-anchor="middle" x="157.5" y="-45.5" font-family="Helvetica,sans-Serif" font-size="10.00">pomodoroTest</text>
</a>
</g>
</g>
<!-- Node1&#45;&gt;Node0 -->
<g id="edge1" class="edge">
<title>Node1&#45;&gt;Node0</title>
<path fill="none" stroke="midnightblue" d="M86.08,-36.61C95.39,-38.12 105.11,-39.69 114.25,-41.17"/>
<polygon fill="midnightblue" stroke="midnightblue" points="86.61,-33.15 76.18,-35.01 85.49,-40.06 86.61,-33.15"/>
</g>
<!-- Node3 -->
<g id="node3" class="node">
<title>Node3</title>
<g id="a_node3"><a xlink:href="classMathUtilityTest.html" target="_top" xlink:title=" ">
<polygon fill="white" stroke="black" points="112,-0.5 112,-19.5 203,-19.5 203,-0.5 112,-0.5"/>
<text text-anchor="middle" x="157.5" y="-7.5" font-family="Helvetica,sans-Serif" font-size="10.00">MathUtilityTest</text>
</a>
</g>
</g>
<!-- Node1&#45;&gt;Node3 -->
<g id="edge2" class="edge">
<title>Node1&#45;&gt;Node3</title>
<path fill="none" stroke="midnightblue" d="M86.23,-21.36C94.65,-20 103.4,-18.59 111.74,-17.24"/>
<polygon fill="midnightblue" stroke="midnightblue" points="85.49,-17.94 76.18,-22.99 86.61,-24.85 85.49,-17.94"/>
</g>
</g>
</svg>
